<?xml version="1.0" encoding="utf-8"?>
<!-- Generator: Adobe Illustrator 24.0.1, SVG Export Plug-In . SVG Version: 6.00 Build 0)  -->
<svg version="1.0" id="Layer_1" xmlns="http://www.w3.org/2000/svg" xmlns:xlink="http://www.w3.org/1999/xlink" x="0px" y="0px"
	 viewBox="0 0 512 512" style="enable-background:new 0 0 512 512;" xml:space="preserve">
<g>
	<polyline style="fill:#FFA3A1;" points="106.2,178.8 106.2,92.4 163.8,92.4 163.8,130.4 	"/>
	<path style="fill:#231F20;" d="M106.2,186.3c-4.1,0-7.5-3.4-7.5-7.5V92.4c0-4.1,3.4-7.5,7.5-7.5h57.6c4.1,0,7.5,3.4,7.5,7.5v38
		c0,4.1-3.4,7.5-7.5,7.5s-7.5-3.4-7.5-7.5V99.9h-42.6v78.9C113.7,182.9,110.3,186.3,106.2,186.3z"/>
</g>
<g>
	<polygon style="fill:#FFD399;" points="402.8,449.8 109,449.8 109,207 256.7,94.4 402.8,207 	"/>
	<path style="fill:#231F20;" d="M402.8,457.3H109c-4.1,0-7.5-3.4-7.5-7.5V207c0-2.3,1.1-4.5,2.9-6L252.1,88.4c2.7-2.1,6.4-2.1,9.1,0
		l146.2,112.7c1.8,1.4,2.9,3.6,2.9,5.9v242.7C410.3,453.9,407,457.3,402.8,457.3z M116.5,442.3h278.8V210.7L256.6,103.8l-140.1,107
		V442.3z"/>
</g>
<g>
	<g>
		<path style="fill:#FFA3A1;" d="M451.7,263.1c-4.8,0-9.7-1.6-13.7-4.8L255.9,115l-182,143.3c-9.6,7.6-23.6,5.9-31.2-3.7
			c-7.6-9.6-5.9-23.6,3.7-31.2L242.2,69.3c8.1-6.3,19.4-6.3,27.5,0l195.8,154.1c9.6,7.6,11.3,21.6,3.7,31.2
			C464.8,260.1,458.3,263.1,451.7,263.1z"/>
		<path style="fill:#231F20;" d="M451.7,270.6c-6.6,0-13.2-2.3-18.4-6.4L255.9,124.6L78.5,264.2c-12.9,10.1-31.6,7.9-41.7-5
			c-4.9-6.2-7.1-14-6.2-21.9c0.9-7.9,4.9-14.9,11.1-19.8L237.5,63.4c10.8-8.5,25.9-8.5,36.8,0l195.8,154.1
			c6.2,4.9,10.2,12,11.1,19.8c0.9,7.9-1.2,15.7-6.2,21.9C469.4,266.4,460.9,270.6,451.7,270.6z M255.9,107.5c1.6,0,3.3,0.5,4.6,1.6
			l182,143.3c2.6,2.1,5.8,3.2,9.1,3.2c4.6,0,8.8-2,11.6-5.6c2.4-3.1,3.5-6.9,3.1-10.9c-0.5-3.9-2.4-7.4-5.5-9.8L265,75.2
			c-5.4-4.2-12.9-4.2-18.2,0L51,229.2c-3.1,2.4-5.1,5.9-5.5,9.8c-0.5,3.9,0.6,7.8,3.1,10.9c5,6.4,14.3,7.5,20.7,2.5l182-143.3
			C252.6,108.1,254.3,107.5,255.9,107.5z"/>
	</g>
</g>
<g>
	<path style="fill:#C49A6C;" d="M453.9,402.2l-5.1,7.2c-2.8,3.9-8.2,4.9-12.1,2.1L293.1,310.1c-3.9-2.8-4.9-8.2-2.1-12.1l5.1-7.2
		c2.8-3.9,8.2-4.9,12.1-2.1l143.7,101.4C455.8,392.9,456.7,398.3,453.9,402.2z"/>
	<path style="fill:#231F20;" d="M443.1,419.1c-4.9,0.6-10.1-0.6-14.4-3.7l-136.5-96.3c-9.4-6.7-11.7-19.7-5-29.2
		c6.7-9.4,19.7-11.7,29.2-5l136.5,96.3c9.4,6.7,11.7,19.7,5,29.2l0,0C454.2,415.4,448.8,418.4,443.1,419.1z M451.4,405.8
		L451.4,405.8L451.4,405.8z M303.6,296.8c-1.4,0.2-2.8,0.9-3.7,2.2c-0.8,1.1-1.1,2.5-0.9,3.9c0.2,1.4,1,2.6,2.1,3.4l136.5,96.3
		c2.4,1.7,5.6,1.1,7.3-1.3l0,0c0.8-1.1,1.1-2.5,0.9-3.9c-0.2-1.4-1-2.6-2.1-3.4l-136.5-96.3C306.2,296.9,304.9,296.6,303.6,296.8z"
		/>
</g>
<g>
	<path style="fill:#C49A6C;" d="M268.6,190.7c-5.9,8.3-3.9,20,4.5,25.8l3.9,2.8l-60.4,85.5l-3.9-2.8c-8.3-5.9-20-3.9-25.8,4.5l0,0
		c-5.9,8.3-3.9,20,4.5,25.8l66.2,46.7c8.3,5.9,20,3.9,25.8-4.5l0,0c5.9-8.3,3.9-20-4.5-25.8l-3.9-2.8l60.4-85.5l3.9,2.8
		c8.3,5.9,20,3.9,25.8-4.5c5.9-8.3,3.9-20-4.5-25.8l-66.2-46.7C286.1,180.4,274.4,182.4,268.6,190.7z"/>
	<path style="fill:#231F20;" d="M371.4,263.3c-7.8,11-22.6,14.3-34.2,7.9l-51.5,73c9.9,8.8,11.8,23.8,4,34.9
		c-8.4,11.9-24.9,14.7-36.8,6.3l-66.2-46.7c-11.9-8.4-14.7-24.9-6.3-36.8c7.8-11,22.6-14.3,34.2-7.9l51.5-73
		c-9.9-8.8-11.8-23.8-4-34.9c8.4-11.9,24.9-14.7,36.8-6.3l66.2,46.7C377,234.9,379.8,251.4,371.4,263.3z M268.5,341.5l60.4-85.5
		c2.5-3.5,7.4-4.4,10.9-1.9l3.9,2.8c4.8,3.4,11.5,2.2,14.9-2.6c3.4-4.8,2.2-11.5-2.6-14.9l-66.2-46.7c-4.8-3.4-11.5-2.2-14.9,2.6
		c-3.4,4.8-2.2,11.5,2.6,14.9l3.9,2.8c3.5,2.5,4.4,7.4,1.9,10.9L223,309.4c-2.5,3.5-7.4,4.4-10.9,1.9l-3.9-2.8
		c-4.8-3.4-11.5-2.2-14.9,2.6c-3.4,4.8-2.2,11.5,2.6,14.9l66.2,46.7c4.8,3.4,11.5,2.2,14.9-2.6c3.4-4.8,2.2-11.5-2.6-14.9l-3.9-2.8
		C266.8,349.9,266,345,268.5,341.5z"/>
</g>
<g>
	<path style="fill:#231F20;" d="M283.4,352.2c-2.5,3.5-7.4,4.4-10.9,1.9l-60.9-43c-3.5-2.5-4.4-7.4-1.9-10.9
		c2.5-3.5,7.4-4.4,10.9-1.9l60.9,43C285,343.8,285.9,348.7,283.4,352.2z"/>
</g>
<g>
	<path style="fill:#231F20;" d="M344.1,266.8c-2.5,3.5-7.4,4.4-10.9,1.9l-65-45.9c-3.5-2.5-4.4-7.4-1.9-10.9
		c2.5-3.5,7.4-4.4,10.9-1.9l65,45.9C345.7,258.4,346.6,263.2,344.1,266.8z"/>
</g>
<g>
	<path style="fill:#C49A6C;" d="M325.6,420.8H182.8l14-20.4c3.6-10.4,13.4-17.4,24.5-17.4h65.9c11,0,20.9,7,24.5,17.4L325.6,420.8z"
		/>
	<path style="fill:#231F20;" d="M325.6,428.3H182.8c-2.8,0-5.3-1.5-6.6-4s-1.1-5.4,0.4-7.7l13.4-19.6c4.9-12.9,17.3-21.5,31.2-21.5
		h65.9c13.9,0,26.3,8.6,31.2,21.5l13.4,19.6c1.6,2.3,1.7,5.3,0.4,7.7S328.4,428.3,325.6,428.3z M197,413.3h114.3l-5.9-8.7
		c-0.4-0.6-0.7-1.2-0.9-1.8c-2.6-7.4-9.5-12.4-17.4-12.4h-65.9c-7.8,0-14.8,5-17.4,12.4c-0.2,0.6-0.5,1.2-0.9,1.8L197,413.3z"/>
</g>
<g>
	<path style="fill:#C49A6C;" d="M340.2,449.1H168.9c-8.1,0-14.7-6.6-14.7-14.7v0c0-8.1,6.6-14.7,14.7-14.7h171.3
		c8.1,0,14.7,6.6,14.7,14.7v0C354.9,442.5,348.3,449.1,340.2,449.1z"/>
	<path style="fill:#231F20;" d="M340.2,456.6H168.9c-12.2,0-22.2-9.9-22.2-22.2s9.9-22.2,22.2-22.2h171.3c12.2,0,22.2,9.9,22.2,22.2
		S352.4,456.6,340.2,456.6z M168.9,427.3c-3.9,0-7.2,3.2-7.2,7.2s3.2,7.2,7.2,7.2h171.3c3.9,0,7.2-3.2,7.2-7.2s-3.2-7.2-7.2-7.2
		H168.9z"/>
</g>
</svg>
