<?xml version="1.0" encoding="UTF-8"?>
<svg id="Capa_1" data-name="Capa 1" xmlns="http://www.w3.org/2000/svg" viewBox="0 0 441 208">
  <defs>
    <style>
      .cls-1 {
        fill: #ff813c;
      }

      .cls-1, .cls-2 {
        stroke-width: 0px;
      }

      .cls-2 {
        fill: #3f3f3f;
      }
    </style>
  </defs>
  <g>
    <g>
      <path class="cls-2" d="M232.29,124.39v-57.17h26.81c4.5,0,8.18.86,11.05,2.57,2.87,1.72,5.02,4.05,6.44,7.01,1.42,2.96,2.13,6.33,2.13,10.12s-.81,7.25-2.44,10.21c-1.63,2.96-3.94,5.25-6.92,6.88-2.99,1.63-6.53,2.44-10.61,2.44h-14.47v17.93h-11.98ZM244.28,96.96h11.98c3.43,0,6.02-.9,7.77-2.71,1.75-1.8,2.62-4.25,2.62-7.32,0-3.31-.83-5.84-2.49-7.59-1.66-1.75-4.14-2.62-7.46-2.62h-12.43v20.24Z"/>
      <path class="cls-2" d="M305.35,125.28c-5.03,0-8.95-1.41-11.76-4.22-2.81-2.81-4.22-6.94-4.22-12.38v-26.37h11.98v26.1c0,2.84.68,4.9,2.04,6.17,1.36,1.27,3.4,1.91,6.13,1.91,2.07,0,3.98-.41,5.73-1.24,1.75-.83,3.24-1.86,4.48-3.11v-29.83h11.98v42.08h-11.1l-.44-4c-1.78,1.42-3.86,2.59-6.26,3.51-2.4.92-5.25,1.38-8.57,1.38Z"/>
      <path class="cls-2" d="M350.36,145.17c-3.73,0-6.92-.53-9.59-1.6v-8.26c.95.3,1.88.52,2.8.67.92.15,1.76.22,2.53.22,2.43,0,4.17-.49,5.24-1.46,1.07-.98,1.6-2.53,1.6-4.66v-38.88h-6.3l1.07-8.88h17.22v48.92c0,4.14-1.2,7.5-3.6,10.08-2.4,2.57-6.05,3.86-10.96,3.86ZM351.87,74.59v-9.41h13.05v9.41h-13.05Z"/>
      <path class="cls-2" d="M392.8,125.28c-2.66,0-5.14-.49-7.41-1.46-2.28-.98-4.11-2.43-5.5-4.35-1.39-1.92-2.09-4.33-2.09-7.24,0-4.14,1.46-7.46,4.39-9.94s7.26-3.73,13.01-3.73h12.43v-1.15c0-2.6-.73-4.44-2.17-5.5-1.45-1.07-4.37-1.6-8.75-1.6-4.79,0-9.41.74-13.85,2.22v-8.43c1.95-.77,4.33-1.4,7.15-1.91,2.81-.5,5.87-.75,9.19-.75,6.33,0,11.23,1.29,14.69,3.86,3.46,2.57,5.19,6.7,5.19,12.38v26.72h-10.39l-.62-3.82c-1.66,1.48-3.7,2.63-6.12,3.46-2.43.83-5.47,1.24-9.14,1.24ZM396.08,117.38c2.66,0,4.97-.44,6.92-1.33s3.49-2.01,4.62-3.37v-6.66h-12.16c-4.68,0-7.01,1.92-7.01,5.77s2.54,5.59,7.63,5.59Z"/>
    </g>
    <g>
      <path class="cls-2" d="M233.53,178.37v-22.14h4.64v22.14h-4.64Z"/>
      <path class="cls-2" d="M242.08,178.37v-16.29h4.3l.17,1.55c.66-.5,1.51-.95,2.53-1.32,1.02-.38,2.09-.57,3.21-.57,2.15,0,3.72.5,4.71,1.51.98,1.01,1.48,2.57,1.48,4.68v10.45h-4.64v-10.21c0-1.1-.22-1.88-.67-2.34-.45-.46-1.28-.69-2.49-.69-.71,0-1.43.16-2.15.48-.72.32-1.32.72-1.8,1.2v11.55h-4.64Z"/>
      <path class="cls-2" d="M262.26,178.37v-16.29h4.3l.17,1.58c.78-.6,1.63-1.07,2.56-1.41s1.93-.52,3.01-.52c1.15,0,2.03.17,2.66.52.63.34,1.12.84,1.46,1.48.76-.6,1.62-1.08,2.6-1.44.97-.37,2.12-.55,3.45-.55,1.88,0,3.27.49,4.16,1.46.89.97,1.34,2.46,1.34,4.45v10.73h-4.57v-10.21c0-1.08-.23-1.85-.69-2.32-.46-.47-1.19-.7-2.2-.7-1.38,0-2.52.49-3.44,1.48.11.39.17.86.17,1.41v10.35h-4.33v-10.21c0-1.01-.17-1.76-.52-2.27-.34-.5-1.01-.76-1.99-.76-.69,0-1.34.18-1.94.53-.61.36-1.15.76-1.63,1.22v11.48h-4.57Z"/>
      <path class="cls-2" d="M299.35,178.71c-3.05,0-5.28-.74-6.7-2.22-1.42-1.48-2.13-3.57-2.13-6.27s.72-4.8,2.15-6.27c1.43-1.48,3.66-2.22,6.69-2.22s5.29.74,6.72,2.22c1.43,1.48,2.15,3.57,2.15,6.27s-.71,4.8-2.13,6.27c-1.42,1.48-3.67,2.22-6.74,2.22ZM299.35,174.76c1.49,0,2.56-.34,3.2-1.01.64-.68.96-1.85.96-3.52s-.32-2.85-.96-3.52c-.64-.68-1.71-1.01-3.2-1.01s-2.52.34-3.16,1.01c-.64.68-.96,1.85-.96,3.52s.32,2.85.96,3.52c.64.68,1.7,1.01,3.16,1.01Z"/>
      <path class="cls-2" d="M321.04,178.71c-1.15,0-2.14-.15-2.99-.46-.85-.31-1.63-.77-2.34-1.39l-.24,1.51h-4.02v-23.17h4.64v7.77c.66-.41,1.41-.72,2.23-.93.83-.21,1.68-.31,2.58-.31,2.34,0,4.19.66,5.55,1.98,1.36,1.32,2.05,3.44,2.05,6.38s-.67,5.1-2.01,6.51c-1.34,1.41-3.16,2.11-5.45,2.11ZM319.74,175.31c1.49,0,2.54-.44,3.15-1.31.61-.87.91-2.18.91-3.92s-.33-3.09-.98-3.83c-.65-.74-1.69-1.12-3.11-1.12-.71,0-1.38.1-2.01.31-.63.21-1.16.5-1.6.89v7.49c.46.48,1,.85,1.63,1.1.63.25,1.3.38,2.01.38Z"/>
      <path class="cls-2" d="M332.56,178.37v-12.86h-2.44l.41-3.44h6.67v16.29h-4.64ZM332.18,159.08v-3.64h5.05v3.64h-5.05Z"/>
      <path class="cls-2" d="M345.69,178.71c-1.58,0-2.73-.37-3.45-1.1-.72-.73-1.08-1.9-1.08-3.51v-18.91h4.64v18.53c0,.57.11.97.34,1.19.23.22.56.33,1,.33.6,0,1.13-.08,1.62-.24v3.2c-.87.34-1.89.52-3.06.52Z"/>
      <path class="cls-2" d="M351.71,178.37v-12.86h-2.44l.41-3.44h6.67v16.29h-4.64ZM351.33,159.08v-3.64h5.05v3.64h-5.05Z"/>
      <path class="cls-2" d="M365.42,178.71c-1.03,0-1.99-.19-2.87-.57-.88-.38-1.59-.94-2.13-1.68-.54-.74-.81-1.68-.81-2.8,0-1.6.57-2.89,1.7-3.85,1.13-.96,2.81-1.44,5.04-1.44h4.81v-.45c0-1.01-.28-1.72-.84-2.13-.56-.41-1.69-.62-3.39-.62-1.86,0-3.64.29-5.36.86v-3.27c.76-.3,1.68-.54,2.77-.74,1.09-.19,2.27-.29,3.56-.29,2.45,0,4.35.5,5.69,1.5,1.34,1,2.01,2.6,2.01,4.8v10.35h-4.02l-.24-1.48c-.64.57-1.43,1.02-2.37,1.34-.94.32-2.12.48-3.54.48ZM366.7,175.65c1.03,0,1.92-.17,2.68-.52s1.35-.78,1.79-1.31v-2.58h-4.71c-1.81,0-2.72.75-2.72,2.23s.98,2.17,2.96,2.17Z"/>
      <path class="cls-2" d="M379.34,178.37v-16.29h4.3l.21,1.68c.73-.46,1.64-.88,2.73-1.25,1.09-.38,2.16-.64,3.21-.77v3.51c-.62.09-1.29.23-2.03.41s-1.43.39-2.1.62c-.67.23-1.23.47-1.68.72v11.38h-4.64Z"/>
      <path class="cls-2" d="M393.68,178.37v-12.86h-2.44l.41-3.44h6.67v16.29h-4.64ZM393.3,159.08v-3.64h5.05v3.64h-5.05Z"/>
      <path class="cls-2" d="M407.39,178.71c-1.03,0-1.99-.19-2.87-.57-.88-.38-1.59-.94-2.13-1.68-.54-.74-.81-1.68-.81-2.8,0-1.6.57-2.89,1.7-3.85,1.13-.96,2.81-1.44,5.04-1.44h4.81v-.45c0-1.01-.28-1.72-.84-2.13-.56-.41-1.69-.62-3.39-.62-1.86,0-3.64.29-5.36.86v-3.27c.76-.3,1.68-.54,2.77-.74,1.09-.19,2.27-.29,3.56-.29,2.45,0,4.35.5,5.69,1.5,1.34,1,2.01,2.6,2.01,4.8v10.35h-4.02l-.24-1.48c-.64.57-1.43,1.02-2.37,1.34-.94.32-2.12.48-3.54.48ZM408.67,175.65c1.03,0,1.92-.17,2.68-.52s1.35-.78,1.79-1.31v-2.58h-4.71c-1.81,0-2.72.75-2.72,2.23s.98,2.17,2.96,2.17Z"/>
    </g>
  </g>
  <g>
    <polygon class="cls-1" points="102.52 93.59 83.93 118.37 19.38 147.29 42.62 118.89 42.62 65.18 80.83 47.11 98.39 58.89 98.39 72.93 79.8 61.57 79.8 103.4 79.8 106.5 102.52 93.59"/>
    <polygon class="cls-1" points="30.22 152.46 30.22 167.95 17.31 167.95 17.31 177.76 202.19 177.76 202.19 167.44 187.73 167.44 187.73 57.44 175.34 51.76 175.34 167.95 153.13 167.95 153.13 30.07 188.25 46.07 188.25 34.84 152.1 17.15 107.69 37.81 107.69 90.49 141.25 133.87 133.51 133.87 133.51 167.44 42.62 167.44 42.62 146.78 30.22 152.46"/>
    <polygon class="cls-1" points="98.57 122.31 98.57 148.97 116.83 152.62 116.83 125.96 98.57 122.31"/>
  </g>
</svg>