<?xml version="1.0" encoding="utf-8"?>
<!-- Generator: Adobe Illustrator 24.0.1, SVG Export Plug-In . SVG Version: 6.00 Build 0)  -->
<svg version="1.0" id="Layer_1" xmlns="http://www.w3.org/2000/svg" xmlns:xlink="http://www.w3.org/1999/xlink" x="0px" y="0px"
	 viewBox="0 0 512 512" style="enable-background:new 0 0 512 512;" xml:space="preserve">
<g>
	<path style="fill:#FFFFFF;" d="M355.6,461H20.7c-5.6,0-10.2-4.6-10.2-10.2V32.2c0-5.6,4.6-10.2,10.2-10.2h334.9
		c5.6,0,10.2,4.6,10.2,10.2v418.6C365.8,456.4,361.2,461,355.6,461z"/>
	<g>
		<g>
			<path style="fill:#231F20;" d="M361.4,467.2H17.2c-6.7,0-12.2-5.5-12.2-12.2V26.7c0-6.7,5.5-12.2,12.2-12.2h344.2
				c6.7,0,12.2,5.5,12.2,12.2V455C373.6,461.7,368.1,467.2,361.4,467.2z M19,453.2h340.7V28.5H19V453.2z"/>
		</g>
		<g>
			<g>
				<polygon style="fill:#F7941D;" points="251.4,234.3 127.2,234.3 127.2,135.5 189.6,87.8 251.4,135.5 				"/>
				<path style="fill:#231F20;" d="M251.4,241.3H127.2c-3.9,0-7-3.1-7-7v-98.8c0-2.2,1-4.2,2.8-5.6l62.4-47.7c2.5-1.9,6-1.9,8.5,0
					l61.8,47.7c1.7,1.3,2.7,3.4,2.7,5.5v98.8C258.4,238.2,255.3,241.3,251.4,241.3z M134.2,227.3h110.2V139l-54.8-42.3L134.2,139
					V227.3z"/>
			</g>
			<g>
				<g>
					<path style="fill:#FFFFFF;" d="M272.1,159.2c-2,0-4.1-0.7-5.8-2l-77-60.6l-77,60.6c-4.1,3.2-10,2.5-13.2-1.6
						c-3.2-4.1-2.5-10,1.6-13.2l82.8-65.2c3.4-2.7,8.2-2.7,11.6,0l82.8,65.2c4.1,3.2,4.8,9.1,1.6,13.2
						C277.6,158,274.9,159.2,272.1,159.2z"/>
					<path style="fill:#231F20;" d="M272.1,166.2c-3.7,0-7.3-1.2-10.1-3.5l-72.7-57.2l-72.7,57.2c-7.1,5.6-17.4,4.4-23-2.7
						c-2.7-3.4-3.9-7.7-3.4-12.1c0.5-4.4,2.7-8.2,6.1-11l82.8-65.2c6-4.7,14.3-4.7,20.3,0l82.8,65.2c7.1,5.6,8.3,15.9,2.7,23
						C281.9,163.9,277.2,166.2,272.1,166.2z M189.3,89.6c1.5,0,3.1,0.5,4.3,1.5l77,60.6c0.5,0.4,1.1,0.5,1.5,0.5
						c0.4,0,1.2-0.1,1.9-0.9c0.8-1,0.6-2.5-0.4-3.4l-82.8-65.2c-0.9-0.7-2.1-0.7-3,0L105,147.9c-0.7,0.5-0.9,1.2-0.9,1.6
						c0,0.4,0,1.1,0.5,1.8c0.8,1,2.3,1.2,3.4,0.4l77-60.6C186.2,90.1,187.8,89.6,189.3,89.6z"/>
				</g>
			</g>
			<g>
				<rect x="168.2" y="175.3" style="fill:#5696C1;" width="42.3" height="57.9"/>
				<path style="fill:#231F20;" d="M210.4,240.3h-42.3c-3.9,0-7-3.1-7-7v-57.9c0-3.9,3.1-7,7-7h42.3c3.9,0,7,3.1,7,7v57.9
					C217.4,237.1,214.3,240.3,210.4,240.3z M175.2,226.2h28.3v-43.9h-28.3V226.2z"/>
			</g>
		</g>
		<g>
			<path style="fill:#231F20;" d="M308.7,293.7H72.1c-3.9,0-7-3.1-7-7v-27c0-3.9,3.1-7,7-7h236.6c3.9,0,7,3.1,7,7v27
				C315.7,290.6,312.5,293.7,308.7,293.7z M79.1,279.7h222.6v-13H79.1V279.7z"/>
		</g>
		<g>
			<path style="fill:#231F20;" d="M150.9,334.9H53.9c-3.9,0-7-3.1-7-7c0-3.9,3.1-7,7-7h96.9c3.9,0,7,3.1,7,7
				C157.9,331.8,154.8,334.9,150.9,334.9z"/>
		</g>
		<g>
			<path style="fill:#231F20;" d="M150.9,381.9H53.9c-3.9,0-7-3.1-7-7c0-3.9,3.1-7,7-7h96.9c3.9,0,7,3.1,7,7
				C157.9,378.8,154.8,381.9,150.9,381.9z"/>
		</g>
		<g>
			<path style="fill:#231F20;" d="M150.9,428.9H53.9c-3.9,0-7-3.1-7-7c0-3.9,3.1-7,7-7h96.9c3.9,0,7,3.1,7,7
				C157.9,425.8,154.8,428.9,150.9,428.9z"/>
		</g>
		<g>
			<path style="fill:#FFE4C7;" d="M277.7,334.3l53.2-2.3c0,0,27.6-0.5,32.4,8.6c4.8,9.1,9.1,23.8,9.1,23.8l59.1,70.7
				c3.7,4.4,5.1,10.3,3.6,15.7c-1.7,5.9-6.7,11.4-20.8,7.9c0,0-6.7,19.1-18.1,19.1c-11.4,0-18.1-8.1-18.1-8.1s-0.5,24.3-19.1,20.5
				c-18.6-3.8-20.5-13.3-20.5-13.3s-5.7,11.4-18.6,5.7s-63.4-64.3-63.4-64.3L277.7,334.3z"/>
			<g>
				<path style="fill:#231F20;" d="M363.1,497.6c-4.5,0-9-1.3-12.9-4.1l-8.6-6.1c-6.5,3.3-18,7-31.4-0.7
					c-23.7-13.6-61-61.4-62.6-63.4c-2.4-3.1-1.8-7.5,1.2-9.8c3.1-2.4,7.5-1.8,9.8,1.2c0.4,0.5,37.1,47.6,58.4,59.8
					c9.8,5.6,17.4,0.8,21.1-1.4c2.4-1.5,5.4-1.4,7.7,0.3l12.2,8.7c3.6,2.6,8.6,1.8,11.3-1.6c2.3-2.9,2.5-6.5,0.5-9.3
					c-1.2-1.6-1.6-3.7-1.1-5.7s1.7-3.6,3.5-4.6l0.3-0.2c2.5-1.4,5.7-1.1,7.9,0.8l9.6,8.1c3.3,2.8,8.2,2.5,11.1-0.7
					c3-3.2,2.9-8.2-0.2-11.3c0,0-0.1-0.1-0.1-0.1l-2.6-2.7c-1.4-1.5-2.1-3.5-1.9-5.6c0.2-2,1.3-3.9,3-5.1c0,0,0.1-0.1,0.1-0.1
					c2.8-1.9,6.7-1.6,9.1,0.9l5.7,6c3.1,3.2,8.2,3.5,11.6,0.5c3.4-3,3.9-8.1,1-11.7c0,0,0-0.1-0.1-0.1l-24-30.1
					c-2.4-3-1.9-7.4,1.1-9.8c3-2.4,7.4-1.9,9.8,1.1l24,30c7.7,9.4,6.6,23.1-2.6,31.1c-5.1,4.4-11.6,6.2-17.9,5.3
					c-0.7,4-2.6,7.9-5.6,11.1c-7.2,7.7-18.6,9.2-27.4,4c-0.8,2.3-2,4.6-3.6,6.6C376.3,494.7,369.7,497.6,363.1,497.6z"/>
			</g>
			<g>
				<path style="fill:#231F20;" d="M280.4,342.8c-3.6,0-6.7-2.8-7-6.4c-0.3-3.9,2.6-7.2,6.4-7.6l40-3.3c3.9-0.3,7.2,2.6,7.6,6.4
					c0.3,3.9-2.6,7.2-6.4,7.6l-40,3.3C280.8,342.8,280.6,342.8,280.4,342.8z"/>
			</g>
			<g>
				<path style="fill:#231F20;" d="M408.3,462.3c-1.9,0-3.8-0.8-5.2-2.3l-33.3-36.9c-2.6-2.9-2.4-7.3,0.5-9.9
					c2.9-2.6,7.3-2.4,9.9,0.5l33.3,36.9c2.6,2.9,2.4,7.3-0.5,9.9C411.6,461.7,410,462.3,408.3,462.3z"/>
			</g>
			<g>
				<path style="fill:#231F20;" d="M376.2,473.9c-1.9,0-3.7-0.7-5.1-2.2l-25.8-27.1c-2.7-2.8-2.6-7.2,0.2-9.9
					c2.8-2.7,7.2-2.6,9.9,0.2l25.8,27.1c2.7,2.8,2.6,7.2-0.2,9.9C379.7,473.3,377.9,473.9,376.2,473.9z"/>
			</g>
			<g>
				<path style="fill:#231F20;" d="M342,486.1c-1.5,0-3-0.5-4.3-1.5l-16-12.4c-3.1-2.4-3.6-6.8-1.2-9.8c2.4-3.1,6.8-3.6,9.8-1.2
					l16,12.4c3.1,2.4,3.6,6.8,1.2,9.8C346.2,485.2,344.1,486.1,342,486.1z"/>
			</g>
			<g>
				<path style="fill:#FFE4C7;" d="M416.9,340.5c0,0-57.7-32-76.2-23.5c-10.2,4.7-41.2,40-45.5,56.2c-4,15.5,36.5,25.7,52.1-3.9
					c2.5-4.8,7.1-8.1,12.5-8.9c4.5-0.7,9.8,0.1,14.4,4.9c10.5,11,57,69,57,69l10.9-8.4"/>
				<path style="fill:#231F20;" d="M431.2,441.2c-2.1,0-4.1-0.9-5.5-2.6c-0.5-0.6-46.4-57.9-56.6-68.5c-2.3-2.4-4.9-3.3-8.3-2.8
					c-3.1,0.5-5.8,2.4-7.3,5.3c-11.3,21.6-34.9,26.5-51.3,20.2c-10.7-4.1-16.1-12.5-13.8-21.3c4.9-18.6,37.4-55.4,49.4-60.8
					c9.7-4.4,26.2-1.7,50.6,8.4c16.9,7,31.3,14.9,31.9,15.3c3.4,1.9,4.6,6.1,2.7,9.5c-1.9,3.4-6.1,4.6-9.5,2.7
					c-0.1-0.1-14.4-7.9-30.6-14.6c-28.4-11.7-37.3-9.6-39.3-8.6c-8.6,4-38,37.6-41.6,51.7c-0.4,1.4,1.9,3.4,5.3,4.7
					c8.6,3.3,25.3,2.5,33.8-13.6c3.5-6.8,10.1-11.5,17.6-12.6c7.9-1.2,15.1,1.2,20.6,7c8.8,9.2,41.2,49.4,53.1,64.1l5.4-4.2
					c3.1-2.4,7.5-1.8,9.8,1.3c2.4,3.1,1.8,7.5-1.3,9.8l-10.9,8.4C434.2,440.8,432.7,441.2,431.2,441.2z"/>
			</g>
			<g>
				<path style="fill:#FF8F71;" d="M241.2,430l-39.4-11.9c-4.3-1.3-6.8-5.9-5.5-10.2l29.5-97.7c1.3-4.3,5.9-6.8,10.2-5.5l39.4,11.9
					c4.3,1.3,6.8,5.9,5.5,10.2l-29.5,97.7C250.1,428.9,245.5,431.3,241.2,430z"/>
				<path style="fill:#231F20;" d="M243.5,437.4c-1.4,0-2.9-0.2-4.4-0.6l-39.4-11.9c-8-2.4-12.6-10.9-10.1-18.9l29.5-97.6
					c1.2-3.9,3.8-7.1,7.4-9c3.6-1.9,7.7-2.3,11.6-1.2l39.4,11.9c8,2.4,12.6,10.9,10.1,18.9l-29.5,97.6
					C256.1,433.1,250,437.4,243.5,437.4z M233.6,311.5c-0.2,0-0.4,0.1-0.5,0.1c-0.2,0.1-0.5,0.3-0.6,0.7L203,410
					c-0.2,0.6,0.2,1.3,0.8,1.5l39.4,11.9l0,0c0.6,0.2,1.3-0.2,1.5-0.8l29.5-97.6c0.1-0.4,0-0.7-0.1-0.9c-0.1-0.2-0.3-0.5-0.7-0.6
					L234,311.5C233.8,311.5,233.7,311.5,233.6,311.5z"/>
			</g>
			<g>
				<path style="fill:#B6ECFF;" d="M452.9,430l39.4-11.9c4.3-1.3,6.8-5.9,5.5-10.2l-29.5-97.7c-1.3-4.3-5.9-6.8-10.2-5.5l-39.4,11.9
					c-4.3,1.3-6.8,5.9-5.5,10.2l29.5,97.7C444,428.9,448.6,431.3,452.9,430z"/>
				<path style="fill:#231F20;" d="M450.5,437.4c-2.5,0-4.9-0.6-7.2-1.8c-3.6-1.9-6.2-5.1-7.4-9l-29.5-97.6
					c-2.4-8,2.1-16.5,10.1-18.9l39.4-11.9c3.9-1.2,8-0.8,11.6,1.2c3.6,1.9,6.2,5.1,7.4,9l29.5,97.6c2.4,8-2.1,16.5-10.1,18.9
					l-39.4,11.9C453.5,437.2,452,437.4,450.5,437.4z M460.5,311.5c-0.1,0-0.2,0-0.3,0.1l-39.4,11.9c-0.6,0.2-1,0.8-0.8,1.5
					l29.5,97.6c0.2,0.6,0.8,1,1.5,0.8l0,0l39.4-11.9c0.6-0.2,1-0.8,0.8-1.5l-29.5-97.6c-0.1-0.4-0.4-0.6-0.6-0.7
					C460.9,311.6,460.7,311.5,460.5,311.5z"/>
			</g>
		</g>
		<g>
			<path style="fill:#231F20;" d="M340.5,65.1h-64.2c-3.9,0-7-3.1-7-7s3.1-7,7-7h64.2c3.9,0,7,3.1,7,7S344.4,65.1,340.5,65.1z"/>
		</g>
		<g>
			<path style="fill:#231F20;" d="M340.5,93.3h-64.2c-3.9,0-7-3.1-7-7s3.1-7,7-7h64.2c3.9,0,7,3.1,7,7S344.4,93.3,340.5,93.3z"/>
		</g>
		<g>
			<circle style="fill:#FF8F71;" cx="67.6" cy="73.8" r="31.5"/>
			<path style="fill:#231F20;" d="M67.6,112.4c-21.2,0-38.5-17.3-38.5-38.5s17.3-38.5,38.5-38.5s38.5,17.3,38.5,38.5
				S88.9,112.4,67.6,112.4z M67.6,49.3c-13.5,0-24.5,11-24.5,24.5s11,24.5,24.5,24.5c13.5,0,24.5-11,24.5-24.5S81.1,49.3,67.6,49.3z
				"/>
		</g>
	</g>
</g>
</svg>
