<svg width="187" height="70" viewBox="0 0 187 70" fill="none" xmlns="http://www.w3.org/2000/svg">
<g clip-path="url(#clip0_88_1598)">
<path d="M93.0437 46.7394V21.8225H104.64C106.586 21.8225 108.178 22.1973 109.419 22.9426C110.66 23.6923 111.59 24.7078 112.204 25.9978C112.819 27.2879 113.126 28.7567 113.126 30.4085C113.126 32.0604 112.775 33.5684 112.07 34.8584C111.365 36.1485 110.366 37.1466 109.077 37.857C107.784 38.5674 106.253 38.9204 104.488 38.9204H98.2296V46.735H93.048L93.0437 46.7394ZM98.2253 34.7843H103.407C104.89 34.7843 106.011 34.3921 106.768 33.6032C107.524 32.8187 107.901 31.7509 107.901 30.4129C107.901 28.9703 107.542 27.8676 106.828 27.1049C106.11 26.3422 105.037 25.963 103.602 25.963H98.2253V34.7843Z" fill="white"/>
<path d="M128.791 47.1272C125.388 47.1272 122.693 46.2948 120.708 44.6299C118.722 42.965 117.732 40.5461 117.732 37.3732V21.8181H122.914V36.9853C122.914 38.8943 123.424 40.3195 124.449 41.2609C125.474 42.2023 126.919 42.673 128.787 42.673C130.656 42.673 132.096 42.2023 133.108 41.2609C134.12 40.3195 134.626 38.8943 134.626 36.9853V21.8181H139.808V37.3732C139.808 40.5461 138.822 42.965 136.849 44.6299C134.877 46.2948 132.191 47.1272 128.787 47.1272H128.791Z" fill="white"/>
<path d="M149.911 47.1272C147.84 47.1272 145.993 46.8308 144.38 46.2381V41.8274C145.66 42.394 147.156 42.6773 148.873 42.6773C150.461 42.6773 151.594 42.3504 152.273 41.6923C152.952 41.0342 153.289 39.9577 153.289 38.4627V21.8268H158.471V39.6264C158.471 44.6298 155.616 47.1316 149.907 47.1316L149.911 47.1272Z" fill="white"/>
<path d="M162.467 46.7394L171.914 21.8225H177.597L187.004 46.7394H181.628L179.284 40.7423H170.184L167.878 46.7394H162.463H162.467ZM170.954 36.7195H178.518L174.716 26.6995L170.954 36.7195Z" fill="white"/>
<path d="M93.0437 58.6726V51.3549H93.9693V58.6726H93.0437Z" fill="white"/>
<path d="M95.548 58.6725V53.2856H96.3827L96.439 53.9001C96.6942 53.6865 96.9926 53.5122 97.3343 53.3771C97.676 53.242 98.0696 53.1722 98.5107 53.1722C99.1855 53.1722 99.6785 53.3335 99.99 53.6517C100.297 53.9698 100.453 54.471 100.453 55.1509V58.6725H99.5272V55.1858C99.5272 54.7151 99.432 54.3882 99.246 54.2008C99.0557 54.0178 98.6967 53.9219 98.1647 53.9219C97.8317 53.9219 97.5203 53.9829 97.2305 54.1049C96.9364 54.227 96.6855 54.3926 96.4736 54.6061V58.6725H95.548Z" fill="white"/>
<path d="M101.975 58.6725V53.2856H102.81L102.866 53.9001C103.152 53.6735 103.454 53.4948 103.774 53.364C104.095 53.2376 104.436 53.1722 104.804 53.1722C105.202 53.1722 105.513 53.2376 105.734 53.364C105.954 53.4948 106.119 53.6735 106.223 53.9088C106.478 53.6952 106.772 53.5209 107.105 53.3814C107.434 53.242 107.832 53.1722 108.29 53.1722C108.9 53.1722 109.354 53.3291 109.648 53.6429C109.947 53.9568 110.094 54.4405 110.094 55.0899V58.6682H109.181V55.1815C109.181 54.7064 109.082 54.3752 108.883 54.1921C108.684 54.009 108.364 53.9175 107.918 53.9175C107.624 53.9175 107.343 53.9655 107.079 54.0657C106.811 54.166 106.586 54.3141 106.396 54.519C106.443 54.7107 106.465 54.9287 106.465 55.1771V58.6638H105.595V55.1989C105.595 54.7456 105.522 54.4187 105.37 54.2183C105.219 54.0178 104.921 53.9175 104.48 53.9175C104.177 53.9175 103.891 53.9829 103.619 54.118C103.346 54.2488 103.1 54.4144 102.892 54.6105V58.6682H101.98L101.975 58.6725Z" fill="white"/>
<path d="M113.887 58.7902C112.953 58.7902 112.278 58.5505 111.85 58.0667C111.426 57.5873 111.214 56.8899 111.214 55.979C111.214 55.0681 111.426 54.3839 111.858 53.9001C112.287 53.4163 112.961 53.1722 113.887 53.1722C114.812 53.1722 115.487 53.4163 115.915 53.9001C116.344 54.3839 116.56 55.0769 116.56 55.979C116.56 56.8812 116.348 57.5829 115.928 58.0667C115.509 58.5461 114.825 58.7902 113.887 58.7902ZM113.887 57.9926C114.527 57.9926 114.977 57.8314 115.241 57.5088C115.504 57.1863 115.634 56.6764 115.634 55.979C115.634 55.2817 115.5 54.7718 115.232 54.4492C114.964 54.1267 114.514 53.9655 113.883 53.9655C113.251 53.9655 112.801 54.1267 112.533 54.4492C112.265 54.7718 112.131 55.2817 112.131 55.979C112.131 56.6764 112.261 57.1863 112.524 57.5088C112.788 57.8314 113.238 57.9926 113.878 57.9926H113.887Z" fill="white"/>
<path d="M120.63 58.7902C120.232 58.7902 119.886 58.7336 119.587 58.6246C119.289 58.5157 119.017 58.3413 118.77 58.106L118.701 58.6726H117.914V51.0149H118.839V53.6866C119.328 53.3466 119.92 53.1766 120.621 53.1766C121.382 53.1766 121.975 53.3946 122.403 53.8304C122.831 54.2662 123.048 54.9679 123.048 55.9399C123.048 56.9118 122.831 57.6353 122.403 58.0973C121.975 58.5593 121.382 58.7902 120.634 58.7902H120.63ZM120.392 58.0406C121.015 58.0406 121.46 57.8663 121.724 57.5176C121.988 57.1689 122.118 56.6416 122.118 55.9399C122.118 55.2382 121.975 54.6846 121.694 54.3839C121.413 54.0832 120.971 53.9306 120.37 53.9306C120.046 53.9306 119.756 53.9786 119.501 54.0745C119.246 54.1704 119.025 54.3011 118.835 54.4667V57.3999C119.038 57.6178 119.272 57.7835 119.536 57.8881C119.799 57.9927 120.085 58.0493 120.392 58.0493V58.0406Z" fill="white"/>
<path d="M124.769 58.6725V54.0265H123.947L124.038 53.2856H125.695V58.6725H124.769ZM124.678 52.026V51.1718H125.703V52.026H124.678Z" fill="white"/>
<path d="M128.445 58.7902C128.086 58.7902 127.801 58.6944 127.593 58.4982C127.386 58.3021 127.282 57.9796 127.282 57.5176V51.0149H128.208V57.413C128.208 57.6396 128.246 57.7965 128.32 57.8793C128.394 57.9622 128.51 58.0057 128.67 58.0057C128.843 58.0057 129.012 57.9839 129.176 57.936V58.6769C129.055 58.7205 128.934 58.751 128.813 58.7685C128.692 58.7815 128.571 58.7902 128.441 58.7902H128.445Z" fill="white"/>
<path d="M130.452 58.6725V54.0265H129.631L129.721 53.2856H131.378V58.6725H130.452ZM130.362 52.026V51.1718H131.387V52.026H130.362Z" fill="white"/>
<path d="M134.622 58.7902C134.284 58.7902 133.973 58.7292 133.688 58.6071C133.402 58.4851 133.173 58.3064 133 58.0667C132.827 57.827 132.74 57.5263 132.74 57.1645C132.74 56.672 132.9 56.2667 133.225 55.9529C133.549 55.6391 134.073 55.4822 134.803 55.4822H136.663V55.1509C136.663 54.8546 136.624 54.6192 136.542 54.4449C136.464 54.2706 136.313 54.1442 136.097 54.0701C135.88 53.996 135.56 53.9568 135.137 53.9568C134.812 53.9568 134.501 53.9829 134.202 54.0352C133.9 54.0875 133.618 54.1616 133.355 54.2531V53.4817C133.597 53.3902 133.878 53.3161 134.207 53.2594C134.535 53.2027 134.886 53.1722 135.262 53.1722C136.023 53.1722 136.59 53.3291 136.97 53.6386C137.351 53.948 137.541 54.4536 137.541 55.1509V58.6725H136.763L136.694 58.058C136.46 58.3021 136.179 58.4808 135.846 58.6028C135.517 58.7248 135.106 58.7858 134.617 58.7858L134.622 58.7902ZM134.86 58.0275C135.249 58.0275 135.595 57.9577 135.898 57.8183C136.201 57.6788 136.456 57.487 136.663 57.243V56.197H134.825C134.406 56.197 134.103 56.2754 133.921 56.4367C133.739 56.5979 133.649 56.8376 133.649 57.1645C133.649 57.4914 133.757 57.7137 133.977 57.8401C134.194 57.9665 134.488 58.0275 134.86 58.0275Z" fill="white"/>
<path d="M139.068 58.6725V53.2856H139.903L139.972 53.9655C140.236 53.7911 140.543 53.6342 140.902 53.4904C141.261 53.3466 141.611 53.242 141.957 53.1722V53.9001C141.745 53.9437 141.516 54.0091 141.27 54.0875C141.023 54.166 140.785 54.2575 140.56 54.3534C140.335 54.4492 140.145 54.5539 139.998 54.6585V58.6682H139.072L139.068 58.6725Z" fill="white"/>
<path d="M143.454 58.6725V54.0265H142.632L142.723 53.2856H144.379V58.6725H143.454ZM143.363 52.026V51.1718H144.388V52.026H143.363Z" fill="white"/>
<path d="M147.628 58.7902C147.29 58.7902 146.979 58.7292 146.693 58.6071C146.408 58.4851 146.179 58.3064 146.006 58.0667C145.833 57.827 145.746 57.5263 145.746 57.1645C145.746 56.672 145.906 56.2667 146.231 55.9529C146.555 55.6391 147.078 55.4822 147.809 55.4822H149.669V55.1509C149.669 54.8546 149.63 54.6192 149.548 54.4449C149.47 54.2706 149.319 54.1442 149.103 54.0701C148.886 53.996 148.566 53.9568 148.142 53.9568C147.818 53.9568 147.507 53.9829 147.208 54.0352C146.905 54.0875 146.624 54.1616 146.36 54.2531V53.4817C146.603 53.3902 146.884 53.3161 147.212 53.2594C147.541 53.2027 147.892 53.1722 148.268 53.1722C149.029 53.1722 149.596 53.3291 149.976 53.6386C150.357 53.948 150.547 54.4536 150.547 55.1509V58.6725H149.769L149.699 58.058C149.466 58.3021 149.185 58.4808 148.852 58.6028C148.523 58.7248 148.112 58.7858 147.623 58.7858L147.628 58.7902ZM147.866 58.0275C148.255 58.0275 148.601 57.9577 148.904 57.8183C149.206 57.6788 149.462 57.487 149.669 57.243V56.197H147.831C147.411 56.197 147.109 56.2754 146.927 56.4367C146.745 56.5979 146.655 56.8376 146.655 57.1645C146.655 57.4914 146.763 57.7137 146.983 57.8401C147.199 57.9665 147.494 58.0275 147.866 58.0275Z" fill="white"/>
<path d="M36.855 33.3111L28.8144 44.1155L0.895264 56.72L10.947 44.3422V20.9333L27.4736 13.0533L35.0687 18.1875V24.3067L27.0281 19.3556V37.5867V38.9378L36.855 33.3111Z" fill="white"/>
<path d="M5.58383 58.9689V65.7244H0V70H79.9643V65.4978H73.71V17.5556L68.3511 15.08V65.7244H58.7449V5.62667L73.935 12.6044V7.70998L58.2994 0L39.0912 9.00442V31.96L53.6065 50.8667H50.2588V65.4978H10.9471V56.4934L5.58383 58.9689Z" fill="white"/>
<path d="M35.1466 45.8328V57.4522L43.0444 59.043V47.4236L35.1466 45.8328Z" fill="white"/>
</g>
<defs>
<clipPath id="clip0_88_1598">
<rect width="187" height="70" fill="white"/>
</clipPath>
</defs>
</svg>
