<?xml version="1.0" encoding="utf-8"?>
<!-- Generator: Adobe Illustrator 24.0.1, SVG Export Plug-In . SVG Version: 6.00 Build 0)  -->
<svg version="1.0" id="Layer_1" xmlns="http://www.w3.org/2000/svg" xmlns:xlink="http://www.w3.org/1999/xlink" x="0px" y="0px"
	 viewBox="0 0 512 512" style="enable-background:new 0 0 512 512;" xml:space="preserve">
<g>
	<polyline style="fill:#EF4136;" points="174.9,167.8 174.9,99.9 219.6,99.9 219.6,129.7 	"/>
	<path style="fill:#231F20;" d="M174.9,175.3c-4.1,0-7.5-3.4-7.5-7.5V99.9c0-4.1,3.4-7.5,7.5-7.5h44.6c4.1,0,7.5,3.4,7.5,7.5v29.9
		c0,4.1-3.4,7.5-7.5,7.5s-7.5-3.4-7.5-7.5v-22.4h-29.6v60.4C182.4,171.9,179,175.3,174.9,175.3z"/>
</g>
<g>
	<polygon style="fill:#E6E7E8;" points="379.8,364.2 176.8,364.2 176.8,187.3 278.9,109.4 379.8,187.3 	"/>
	<path style="fill:#231F20;" d="M379.8,371.7h-203c-4.1,0-7.5-3.4-7.5-7.5V187.3c0-2.3,1.1-4.5,2.9-6l102-77.9
		c2.7-2.1,6.4-2.1,9.1,0l101,77.9c1.8,1.4,2.9,3.6,2.9,5.9v176.9C387.3,368.3,384,371.7,379.8,371.7z M184.3,356.7h188V191
		l-93.5-72.1L184.3,191V356.7z"/>
</g>
<g>
	<g>
		<path style="fill:#EF4136;" d="M413.6,226c-3.3,0-6.7-1.1-9.5-3.3l-125.8-99l-125.8,99c-6.7,5.2-16.3,4.1-21.6-2.6
			c-5.2-6.7-4.1-16.3,2.6-21.6L268.8,92.1c5.6-4.4,13.4-4.4,19,0l135.3,106.5c6.7,5.2,7.8,14.9,2.6,21.6
			C422.6,224,418.1,226,413.6,226z"/>
		<path style="fill:#231F20;" d="M413.6,233.5c-5.1,0-10.1-1.7-14.1-4.9l-121.1-95.3l-121.1,95.3c-9.9,7.8-24.3,6.1-32.1-3.8
			c-3.8-4.8-5.5-10.8-4.7-16.8c0.7-6.1,3.8-11.5,8.6-15.3L264.2,86.2c8.3-6.6,20-6.6,28.3,0l135.3,106.5c4.8,3.8,7.8,9.2,8.6,15.3
			c0.7,6.1-1,12-4.7,16.8C427.2,230.3,420.7,233.5,413.6,233.5z M278.3,116.2c1.6,0,3.3,0.5,4.6,1.6l125.8,99
			c1.8,1.4,3.6,1.7,4.8,1.7c2.4,0,4.7-1.1,6.2-3c1.3-1.6,1.9-3.7,1.6-5.8c-0.2-2.1-1.3-3.9-2.9-5.2L283.2,98c-2.9-2.3-6.9-2.3-9.7,0
			L138.2,204.4c-1.6,1.3-2.7,3.2-2.9,5.2c-0.2,2.1,0.3,4.1,1.6,5.8c2.7,3.4,7.6,4,11,1.3l125.8-99
			C275.1,116.7,276.7,116.2,278.3,116.2z"/>
	</g>
</g>
<g>
	<rect x="243.8" y="252.3" style="fill:#5696C1;" width="69.1" height="110.1"/>
	<path style="fill:#231F20;" d="M312.9,369.9h-69.1c-4.1,0-7.5-3.4-7.5-7.5V252.3c0-4.1,3.4-7.5,7.5-7.5h69.1c4.1,0,7.5,3.4,7.5,7.5
		v110.1C320.4,366.6,317,369.9,312.9,369.9z M251.3,354.9h54.1v-95.1h-54.1V354.9z"/>
</g>
<g>
	<path style="fill:#FFD6A1;" d="M107.1,333.2l55.2-27c0,0,31-13.8,70.4,11.9l73.8,21.1c9.4,2.7,16,11.1,16.3,20.8c0,0.1,0,0.3,0,0.4
		l90-18.8c11.1-2.3,22.2,4.1,25.7,14.9l0,0c3.9,11.9-2.9,24.7-14.9,28.2l-134.8,39.3c-5.1,1.5-10.5,1.5-15.6,0.1l-116.8-32.4
		l-26.8,9.2"/>
	<path style="fill:#231F20;" d="M280.8,432.5c-3.2,0-6.5-0.4-9.6-1.3l-114.6-31.8l-24.7,8.4c-3.9,1.3-8.2-0.8-9.5-4.7
		s0.8-8.2,4.7-9.5l26.8-9.2c1.4-0.5,3-0.5,4.4-0.1l116.8,32.4c3.8,1,7.8,1,11.5-0.1l134.8-39.3c3.9-1.1,7-3.7,8.9-7.2
		c1.9-3.5,2.2-7.6,1-11.4c-2.3-7.2-9.6-11.4-17-9.9l-90,18.8c-2.2,0.5-4.5-0.1-6.2-1.5s-2.8-3.5-2.8-5.8l0-0.2
		c-0.2-6.5-4.5-12-10.8-13.8l-73.8-21.1c-0.7-0.2-1.4-0.5-2-0.9c-34.4-22.4-61-12.3-63.2-11.4l-55,26.9c-3.7,1.8-8.2,0.3-10-3.4
		c-1.8-3.7-0.3-8.2,3.4-10l55.2-27c0.1,0,0.2-0.1,0.3-0.1c1.4-0.6,34.7-14.9,76.6,11.8l72.8,20.8c9.9,2.8,17.3,10.2,20.3,19.5
		l82.4-17.2c14.9-3.1,29.6,5.4,34.3,19.9c2.5,7.7,1.8,15.9-2,23.1c-3.8,7.2-10.2,12.4-17.9,14.6L290.9,431
		C287.6,432,284.2,432.5,280.8,432.5z"/>
</g>
<g>
	<path style="fill:#231F20;" d="M299.4,387.9c-6.3,0-13.4-1.3-21.1-3.8l-69.7-18.8c-4-1.1-6.4-5.2-5.3-9.2c1.1-4,5.2-6.4,9.2-5.3
		l69.9,18.8c0.1,0,0.3,0.1,0.4,0.1c12,4,21.9,4.1,27.1,0.4c3.5-2.5,5.2-7.3,5.2-14.1c0-4.1,3.3-7.5,7.5-7.5c0,0,0,0,0,0
		c4.1,0,7.5,3.3,7.5,7.5c0.1,14.9-6.1,22.5-11.4,26.4C313.6,386,307.1,387.9,299.4,387.9z"/>
</g>
<g>
	
		<rect x="38.7" y="338.2" transform="matrix(-1.836970e-16 1 -1 -1.836970e-16 462.8823 267.039)" style="fill:#94E6FF;" width="118.4" height="53.5"/>
	<path style="fill:#231F20;" d="M124.7,431.7H71.2c-4.1,0-7.5-3.4-7.5-7.5V305.7c0-4.1,3.4-7.5,7.5-7.5h53.5c4.1,0,7.5,3.4,7.5,7.5
		v118.4C132.2,428.3,128.8,431.7,124.7,431.7z M78.7,416.7h38.5V313.2H78.7V416.7z"/>
</g>
</svg>
