<?xml version="1.0" encoding="utf-8"?>
<!-- Generator: Adobe Illustrator 24.0.1, SVG Export Plug-In . SVG Version: 6.00 Build 0)  -->
<svg version="1.0" id="Layer_1" xmlns="http://www.w3.org/2000/svg" xmlns:xlink="http://www.w3.org/1999/xlink" x="0px" y="0px"
	 viewBox="0 0 512 512" style="enable-background:new 0 0 512 512;" xml:space="preserve">
<g>
	<rect x="310.3" y="50.6" style="fill:#C99C6B;" width="66" height="411.8"/>
	<path style="fill:#231F20;" d="M376.3,469.9h-66c-4.1,0-7.5-3.4-7.5-7.5V50.6c0-4.1,3.4-7.5,7.5-7.5h66c4.1,0,7.5,3.4,7.5,7.5
		v411.8C383.8,466.6,380.4,469.9,376.3,469.9z M317.8,454.9h51V58.1h-51V454.9z"/>
</g>
<g>
	<polygon style="fill:#C99C6B;" points="452.1,116.3 452.1,176.1 60.3,176.1 110.3,116.3 	"/>
	<path style="fill:#231F20;" d="M452.1,183.6H60.3c-2.9,0-5.6-1.7-6.8-4.3c-1.2-2.6-0.8-5.8,1-8l50-59.8c1.4-1.7,3.5-2.7,5.8-2.7
		h341.8c4.1,0,7.5,3.4,7.5,7.5v59.8C459.6,180.2,456.2,183.6,452.1,183.6z M76.3,168.6h368.3v-44.8H113.8L76.3,168.6z"/>
</g>
<g>
	<path style="fill:#231F20;" d="M113,180.3c-1.1,0-2.1-0.2-3.2-0.7c-2.6-1.2-4.3-3.9-4.3-6.8v-54.1c0-4.1,3.4-7.5,7.5-7.5
		s7.5,3.4,7.5,7.5v37.9l52.9-44.7c3.2-2.7,7.9-2.3,10.6,0.9c2.7,3.2,2.3,7.9-0.9,10.6l-65.2,55.2C116.5,179.7,114.8,180.3,113,180.3
		z"/>
</g>
<g>
	<path style="fill:#231F20;" d="M178.8,180.3c-1.1,0-2.1-0.2-3.2-0.7c-2.6-1.2-4.3-3.9-4.3-6.8v-54.1c0-4.1,3.4-7.5,7.5-7.5
		s7.5,3.4,7.5,7.5v37.9l52.9-44.7c3.2-2.7,7.9-2.3,10.6,0.9c2.7,3.2,2.3,7.9-0.9,10.6l-65.2,55.2
		C182.3,179.7,180.5,180.3,178.8,180.3z"/>
</g>
<g>
	<path style="fill:#231F20;" d="M244.6,180.3c-1.1,0-2.1-0.2-3.2-0.7c-2.6-1.2-4.3-3.9-4.3-6.8v-54.1c0-4.1,3.4-7.5,7.5-7.5
		s7.5,3.4,7.5,7.5v37.9l52.9-44.7c3.2-2.7,7.9-2.3,10.6,0.9c2.7,3.2,2.3,7.9-0.9,10.6l-65.2,55.2
		C248.1,179.7,246.3,180.3,244.6,180.3z"/>
</g>
<g>
	<path style="fill:#231F20;" d="M310.4,180.3c-1.1,0-2.1-0.2-3.2-0.7c-2.6-1.2-4.3-3.9-4.3-6.8v-54.1c0-4.1,3.4-7.5,7.5-7.5
		s7.5,3.4,7.5,7.5v37.9l52.9-44.7c3.2-2.7,7.9-2.3,10.6,0.9c2.7,3.2,2.3,7.9-0.9,10.6l-65.2,55.2
		C313.9,179.7,312.1,180.3,310.4,180.3z"/>
</g>
<g>
	<path style="fill:#231F20;" d="M376.2,180.3c-1.1,0-2.1-0.2-3.2-0.7c-2.6-1.2-4.3-3.9-4.3-6.8v-54.1c0-4.1,3.4-7.5,7.5-7.5
		s7.5,3.4,7.5,7.5v37.9l52.9-44.7c3.2-2.7,7.9-2.3,10.6,0.9c2.7,3.2,2.3,7.9-0.9,10.6L381,178.5
		C379.6,179.7,377.9,180.3,376.2,180.3z"/>
</g>
<g>
	<path style="fill:#231F20;" d="M373.4,330.4c-2.2,0-4.4-1-5.9-2.9l-55.2-70c-1.8-2.3-2.1-5.3-0.9-7.9s3.9-4.2,6.7-4.2h54.1
		c4.1,0,7.5,3.4,7.5,7.5s-3.4,7.5-7.5,7.5h-38.6l45.6,57.9c2.6,3.3,2,8-1.2,10.5C376.6,329.8,375,330.4,373.4,330.4z"/>
</g>
<g>
	<path style="fill:#231F20;" d="M373.4,255.4c-2.2,0-4.4-1-5.9-2.9l-55.2-70c-1.8-2.3-2.1-5.3-0.9-7.9s3.9-4.2,6.7-4.2h54.1
		c4.1,0,7.5,3.4,7.5,7.5s-3.4,7.5-7.5,7.5h-38.6l45.6,57.9c2.6,3.3,2,8-1.2,10.5C376.6,254.9,375,255.4,373.4,255.4z"/>
</g>
<g>
	<path style="fill:#231F20;" d="M373.4,132.3c-2.2,0-4.4-1-5.9-2.9l-55.2-70c-1.8-2.3-2.1-5.3-0.9-7.9s3.9-4.2,6.7-4.2h54.1
		c4.1,0,7.5,3.4,7.5,7.5s-3.4,7.5-7.5,7.5h-38.6l45.6,57.9c2.6,3.3,2,8-1.2,10.5C376.6,131.8,375,132.3,373.4,132.3z"/>
</g>
<g>
	<path style="fill:#231F20;" d="M373.4,401.4c-2.1,0-4.2-0.9-5.7-2.6l-55.2-64.6c-1.9-2.2-2.3-5.4-1.1-8c1.2-2.7,3.9-4.4,6.8-4.4
		h54.1c4.1,0,7.5,3.4,7.5,7.5s-3.4,7.5-7.5,7.5h-37.8l44.6,52.3c2.7,3.1,2.3,7.9-0.8,10.6C376.8,400.8,375.1,401.4,373.4,401.4z"/>
</g>
<g>
	<path style="fill:#231F20;" d="M373.4,465.4c-2.1,0-4.2-0.9-5.6-2.6L312.5,400c-1.9-2.2-2.4-5.4-1.2-8c1.2-2.7,3.9-4.4,6.8-4.4
		h54.1c4.1,0,7.5,3.4,7.5,7.5s-3.4,7.5-7.5,7.5h-37.5L379,453c2.7,3.1,2.4,7.9-0.7,10.6C376.9,464.8,375.1,465.4,373.4,465.4z"/>
</g>
<g>
	<rect x="92.7" y="349.5" style="fill:#CFF3FF;" width="168.7" height="107.6"/>
	<path style="fill:#231F20;" d="M261.4,464.6H92.7c-4.1,0-7.5-3.4-7.5-7.5V349.5c0-4.1,3.4-7.5,7.5-7.5h168.7c4.1,0,7.5,3.4,7.5,7.5
		v107.6C268.9,461.3,265.5,464.6,261.4,464.6z M100.2,449.6h153.7V357H100.2V449.6z"/>
</g>
<g>
	<polygon style="fill:#F15A29;" points="177,235.9 88,310.7 266.1,310.7 	"/>
	<path style="fill:#231F20;" d="M266.1,318.2H88c-3.2,0-6-2-7-4.9c-1.1-3-0.2-6.3,2.2-8.3l89.1-74.8c2.8-2.3,6.9-2.3,9.6,0
		l89.1,74.8c2.4,2,3.3,5.3,2.2,8.3C272.1,316.2,269.3,318.2,266.1,318.2z M108.6,303.2h136.9L177,245.7L108.6,303.2z"/>
</g>
<g>
	<path style="fill:#231F20;" d="M177.8,243.4c-4.1,0-7.5-3.4-7.5-7.5v-60.2c0-4.1,3.4-7.5,7.5-7.5s7.5,3.4,7.5,7.5v60.2
		C185.3,240.1,181.9,243.4,177.8,243.4z"/>
</g>
<g>
	<rect x="161" y="390.2" style="fill:#FFFFFF;" width="32" height="66.9"/>
	<path style="fill:#231F20;" d="M193,464.6h-32c-4.1,0-7.5-3.4-7.5-7.5v-66.9c0-4.1,3.4-7.5,7.5-7.5h32c4.1,0,7.5,3.4,7.5,7.5v66.9
		C200.5,461.2,197.2,464.6,193,464.6z M168.5,449.6h17v-51.9h-17V449.6z"/>
</g>
<g>
	<path style="fill:#231F20;" d="M110.3,123.8c-3.2,0-6.1-2-7.1-5.2c-1.3-3.9,0.9-8.2,4.8-9.5l200-65.7c3.9-1.3,8.2,0.9,9.5,4.8
		c1.3,3.9-0.9,8.2-4.8,9.5l-200,65.7C111.8,123.7,111,123.8,110.3,123.8z"/>
</g>
</svg>
